<svg xmlns="http://www.w3.org/2000/svg" viewBox="0 0 260 190" fill="none">
  <defs>
    <linearGradient id="bg2" x1="42" y1="22" x2="220" y2="170" gradientUnits="userSpaceOnUse"><stop stop-color="#F0ECFF"/><stop offset="1" stop-color="#E3EAFF"/></linearGradient>
    <linearGradient id="bag" x1="63" y1="91" x2="139" y2="160" gradientUnits="userSpaceOnUse"><stop stop-color="#7053EE"/><stop offset="1" stop-color="#3423A7"/></linearGradient>
    <linearGradient id="glass" x1="132" y1="48" x2="194" y2="117" gradientUnits="userSpaceOnUse"><stop stop-color="#BDAFFF" stop-opacity=".72"/><stop offset="1" stop-color="#F8F6FF" stop-opacity=".18"/></linearGradient>
    <filter id="s2" x="31" y="18" width="216" height="170" filterUnits="userSpaceOnUse"><feDropShadow dx="0" dy="12" stdDeviation="10" flood-color="#32238C" flood-opacity=".25"/></filter>
  </defs>
  <ellipse cx="130" cy="164" rx="90" ry="13" fill="#4935B9" opacity=".13"/>
  <path d="M34 102c0-45 37-80 91-80 57 0 101 31 101 79 0 48-36 72-95 72-59 0-97-23-97-71Z" fill="url(#bg2)"/>
  <circle cx="47" cy="72" r="6" fill="#8A6AF7" opacity=".5"/><circle cx="215" cy="65" r="8" fill="#B59FFF" opacity=".45"/>
  <g filter="url(#s2)">
    <path d="M58 102h91v55a12 12 0 0 1-12 12H70a12 12 0 0 1-12-12v-55Z" fill="url(#bag)"/>
    <path d="M84 102V88c0-9 7-16 16-16h10c9 0 16 7 16 16v14" stroke="#5A42D7" stroke-width="9"/>
    <path d="M58 112h91" stroke="#927DFA" stroke-width="4" opacity=".8"/>
    <rect x="97" y="108" width="14" height="12" rx="3" fill="#F3CB79"/>
    <circle cx="158" cy="78" r="38" fill="url(#glass)" stroke="#4F39D3" stroke-width="9"/>
    <circle cx="158" cy="78" r="26" fill="#fff" opacity=".22"/>
    <path d="m185 106 24 24" stroke="#3F2CAE" stroke-width="12" stroke-linecap="round"/>
    <circle cx="158" cy="78" r="13" fill="#fff" opacity=".18"/>
  </g>
  <path d="M194 31c4 7 9 12 17 15-8 2-13 7-17 15-3-8-8-13-16-15 8-3 13-8 16-15Z" fill="#7254E8" opacity=".55"/>
</svg>
