<svg xmlns="http://www.w3.org/2000/svg" viewBox="0 0 64 64" role="img" aria-labelledby="t"><title id="t">SuperJob</title><defs><linearGradient id="g" x1="0" y1="0" x2="1" y2="1"><stop stop-color="#16a7dd"/><stop offset="1" stop-color="#0879b7"/></linearGradient></defs><path fill="url(#g)" d="M16 14c0-5.5 4.6-9 10.6-9 5 0 9.2 2.1 12 5.1l-5.7 5.2c-1.8-1.8-3.9-2.7-6-2.7-2.2 0-3.7.9-3.7 2.5 0 1.8 1.8 2.5 6.4 3.8 7.1 2 11.2 5.2 11.2 11.5 0 7.1-5.7 11.7-13.6 11.7-6.2 0-11.5-2.5-15-6.9l6-5.1c2.4 2.8 5.4 4.3 8.7 4.3 3 0 5-1.2 5-3.1 0-2-1.9-2.9-6.7-4.2C19 25.4 16 21.6 16 14Z"/><path fill="#0b4f82" d="M43 10h8v31.5c0 8.8-4.7 14-13.3 14-2.4 0-4.8-.4-6.8-1.3l2.2-7.2c1.2.5 2.6.8 3.9.8 4.1 0 6-2.2 6-6.6z"/></svg>
